# xmcd CD database file
#
# Track frame offsets:
#       150
#       23845
#       39243
#       56699
#       81593
#       103265
#       120959
#       137840
#       156937
#       193186
#
# Disc length: 2713 seconds
#
# Revision: 1
# Processed by: cddbd v1.5.2PL0 Copyright (c) Steve Scherf et al.
# Submitted via: jack 3.1.1
#
DISCID=860a970a
DTITLE=The Great Tribulation - The Flood Brought The Fire
DYEAR=2011
DGENRE=Outlaw Americana
TTITLE0=Shine That Silver Bullet
TTITLE1=You've Got Ghosts
TTITLE2=I'll Be Here
TTITLE3=In The Barroom
TTITLE4=When A Stranger Kisses Me
TTITLE5=Better Left Unfound
TTITLE6=Chinatown
TTITLE7=When I Have My Heart Attack
TTITLE8=Sure As The Rain
TTITLE9=Don't Count The Days
EXTD=
EXTT0=
EXTT1=
EXTT2=
EXTT3=
EXTT4=
EXTT5=
EXTT6=
EXTT7=
EXTT8=
EXTT9=
PLAYORDER=
